<svg width="24" height="24" viewBox="0 0 24 24" fill="none" xmlns="http://www.w3.org/2000/svg">
<path fill-rule="evenodd" clip-rule="evenodd" d="M4 4V4.00006L4.00006 4H4ZM4 18.5858V5.41426L10.5858 12.0001L4 18.5858ZM5.41427 20H18.5857L12 13.4143L5.41427 20ZM13.4142 12.0001L20 18.5858V5.41427L13.4142 12.0001ZM20 4.00005V4H19.9999L20 4.00005ZM18.5858 4H5.41416L12 10.5858L18.5858 4ZM3 2C2.44772 2 2 2.44772 2 3V21C2 21.5523 2.44772 22 3 22H21C21.5523 22 22 21.5523 22 21V3C22 2.44772 21.5523 2 21 2H3Z" fill="#1B1B1B"/>
</svg>
