<svg width="104" height="104" viewBox="0 0 104 104" fill="none" xmlns="http://www.w3.org/2000/svg">
<rect width="104" height="104" rx="2" fill="#EEEEEE"/>
<path d="M59 42H45C44.2044 42 43.4413 42.3161 42.8787 42.8787C42.3161 43.4413 42 44.2044 42 45V59C42 59.7956 42.3161 60.5587 42.8787 61.1213C43.4413 61.6839 44.2044 62 45 62H59C59.1645 61.9977 59.3284 61.981 59.49 61.95L59.79 61.88H59.86H59.91L60.28 61.74L60.41 61.67C60.51 61.61 60.62 61.56 60.72 61.49C60.8535 61.3918 60.9805 61.2849 61.1 61.17L61.17 61.08C61.2682 60.9805 61.3585 60.8735 61.44 60.76L61.53 60.63C61.5998 60.5187 61.6601 60.4016 61.71 60.28C61.7374 60.232 61.7609 60.1818 61.78 60.13C61.83 60.01 61.86 59.88 61.9 59.75V59.6C61.9567 59.4046 61.9903 59.2032 62 59V45C62 44.2044 61.6839 43.4413 61.1213 42.8787C60.5587 42.3161 59.7956 42 59 42ZM45 60C44.7348 60 44.4804 59.8946 44.2929 59.7071C44.1054 59.5196 44 59.2652 44 59V54.69L47.29 51.39C47.383 51.2963 47.4936 51.2219 47.6154 51.1711C47.7373 51.1203 47.868 51.0942 48 51.0942C48.132 51.0942 48.2627 51.1203 48.3846 51.1711C48.5064 51.2219 48.617 51.2963 48.71 51.39L57.31 60H45ZM60 59C59.9991 59.1233 59.9753 59.2453 59.93 59.36C59.9071 59.4087 59.8804 59.4556 59.85 59.5C59.8232 59.5423 59.7931 59.5825 59.76 59.62L54.41 54.27L55.29 53.39C55.383 53.2963 55.4936 53.2219 55.6154 53.1711C55.7373 53.1203 55.868 53.0942 56 53.0942C56.132 53.0942 56.2627 53.1203 56.3846 53.1711C56.5064 53.2219 56.617 53.2963 56.71 53.39L60 56.69V59ZM60 53.86L58.12 52C57.5477 51.457 56.7889 51.1543 56 51.1543C55.2111 51.1543 54.4523 51.457 53.88 52L53 52.88L50.12 50C49.5477 49.457 48.7889 49.1543 48 49.1543C47.2111 49.1543 46.4523 49.457 45.88 50L44 51.86V45C44 44.7348 44.1054 44.4804 44.2929 44.2929C44.4804 44.1054 44.7348 44 45 44H59C59.2652 44 59.5196 44.1054 59.7071 44.2929C59.8946 44.4804 60 44.7348 60 45V53.86ZM53.5 46C53.2033 46 52.9133 46.088 52.6666 46.2528C52.42 46.4176 52.2277 46.6519 52.1142 46.926C52.0006 47.2001 51.9709 47.5017 52.0288 47.7926C52.0867 48.0836 52.2296 48.3509 52.4393 48.5607C52.6491 48.7704 52.9164 48.9133 53.2074 48.9712C53.4983 49.0291 53.7999 48.9994 54.074 48.8858C54.3481 48.7723 54.5824 48.58 54.7472 48.3334C54.912 48.0867 55 47.7967 55 47.5C55 47.1022 54.842 46.7206 54.5607 46.4393C54.2794 46.158 53.8978 46 53.5 46Z" fill="#1B1B1B"/>
</svg>
